<svg width="260" height="45" viewBox="0 0 260 45" fill="none" xmlns="http://www.w3.org/2000/svg">
<path d="M224.517 35.5483C223.45 35.5483 222.581 36.4169 222.581 37.4838C222.581 38.5508 223.45 39.4193 224.517 39.4193C225.584 39.4193 226.452 38.5508 226.452 37.4838C226.452 36.4169 225.584 35.5483 224.517 35.5483ZM224.517 38.129C224.161 38.129 223.871 37.8398 223.871 37.4838C223.871 37.1279 224.161 36.8387 224.517 36.8387C224.872 36.8387 225.162 37.1279 225.162 37.4838C225.162 37.8398 224.872 38.129 224.517 38.129Z" fill="url(#paint0_linear)"/>
<path d="M260 6.75082C260 4.13174 257.869 2 255.249 2C253.98 2 252.787 2.49427 251.89 3.39176L249.592 5.68889C249.089 5.39497 248.521 5.22581 247.922 5.22581C246.78 5.22581 245.731 5.80198 245.118 6.76594L241.113 13.0582L242.313 14.2581L240.645 15.9264L240.212 15.4929C239.831 15.1124 239.326 14.9032 238.788 14.9032C237.677 14.9032 236.774 15.8064 236.774 16.9168C236.774 17.447 236.989 17.9659 237.364 18.3407L237.797 18.7742L236.129 20.4425L235.696 20.0091C235.315 19.6285 234.81 19.4194 234.272 19.4194C233.161 19.4194 232.258 20.3225 232.258 21.433C232.258 21.9631 232.473 22.482 232.848 22.8569L233.281 23.2903L231.613 24.9587L231.179 24.5252C230.799 24.1447 230.294 23.9355 229.756 23.9355C228.645 23.9355 227.742 24.8386 227.742 25.9491C227.742 26.4793 227.957 26.9981 228.332 27.373L228.765 27.8065L227.097 29.4748L226.663 29.0413C226.283 28.6608 225.777 28.4516 225.239 28.4516C224.129 28.4516 223.226 29.3548 223.226 30.4652C223.226 30.9954 223.441 31.5142 223.816 31.8891L224.249 32.3226L221.124 35.4469C220.399 36.1721 220 37.1361 220 38.1612C220 40.2781 221.722 42 223.839 42C224.864 42 225.828 41.6006 226.553 40.8754L229.677 37.751L230.111 38.1845C230.491 38.565 230.997 38.7742 231.535 38.7742C232.645 38.7742 233.548 37.871 233.548 36.7606C233.548 36.2304 233.334 35.7116 232.959 35.3367L232.525 34.9032L234.194 33.2349L234.627 33.6683C235.007 34.0489 235.513 34.2581 236.051 34.2581C237.161 34.2581 238.065 33.3549 238.065 32.2445C238.065 31.7143 237.85 31.1954 237.475 30.8206L237.041 30.3871L238.71 28.7187L239.143 29.1522C239.523 29.5328 240.029 29.7419 240.567 29.7419C241.677 29.7419 242.581 28.8388 242.581 27.7283C242.581 27.1981 242.366 26.6793 241.991 26.3044L241.557 25.871L243.226 24.2026L243.659 24.6361C244.04 25.0166 244.545 25.2258 245.083 25.2258C246.194 25.2258 247.097 24.3226 247.097 23.2122C247.097 22.682 246.882 22.1632 246.507 21.7883L246.074 21.3548L247.742 19.6865L248.942 20.8864L255.234 16.8819C256.199 16.2692 256.774 15.2208 256.774 14.0782C256.774 13.48 256.605 12.9117 256.31 12.4083L258.608 10.1108C259.506 9.21365 260 8.02004 260 6.75082V6.75082ZM225.64 39.9631C225.159 40.4444 224.519 40.7097 223.839 40.7097C222.434 40.7097 221.29 39.5665 221.29 38.1612C221.29 37.4807 221.556 36.8406 222.037 36.3592L225.161 33.2349L228.765 36.8387L225.64 39.9631ZM231.535 37.4839C231.341 37.4839 231.16 37.4089 231.023 37.2722L224.728 30.9768C224.594 30.842 224.516 30.6555 224.516 30.4652C224.516 30.0664 224.841 29.7419 225.239 29.7419C225.433 29.7419 225.614 29.8169 225.751 29.9536L232.046 36.249C232.181 36.3838 232.258 36.5703 232.258 36.7606C232.258 37.1594 231.934 37.4839 231.535 37.4839ZM231.613 33.9909L228.009 30.3871L229.677 28.7187L233.281 32.3226L231.613 33.9909ZM236.051 32.9677C235.857 32.9677 235.676 32.8928 235.539 32.756L229.244 26.4607C229.11 26.3259 229.032 26.1394 229.032 25.9491C229.032 25.5503 229.357 25.2258 229.756 25.2258C229.949 25.2258 230.13 25.3008 230.267 25.4375L236.562 31.7329C236.697 31.8677 236.774 32.0542 236.774 32.2445C236.774 32.6433 236.45 32.9677 236.051 32.9677ZM236.129 29.4748L232.525 25.871L234.194 24.2026L237.797 27.8065L236.129 29.4748ZM240.567 28.4516C240.374 28.4516 240.192 28.3766 240.055 28.2399L233.76 21.9446C233.626 21.8097 233.548 21.6232 233.548 21.433C233.548 21.0341 233.873 20.7097 234.272 20.7097C234.465 20.7097 234.647 20.7847 234.783 20.9214L241.079 27.2167C241.213 27.3516 241.29 27.5381 241.29 27.7283C241.29 28.1271 240.966 28.4516 240.567 28.4516ZM240.645 24.9587L237.041 21.3548L238.71 19.6865L242.314 23.2903L240.645 24.9587ZM245.083 23.9355C244.89 23.9355 244.708 23.8605 244.572 23.7238L238.276 17.4284C238.142 17.2936 238.065 17.1071 238.065 16.9168C238.065 16.518 238.389 16.1935 238.788 16.1935C238.981 16.1935 239.163 16.2685 239.299 16.4052L245.595 22.7006C245.729 22.8354 245.806 23.0219 245.806 23.2122C245.806 23.611 245.482 23.9355 245.083 23.9355ZM245.161 20.4425L241.557 16.8387L243.226 15.1704L246.83 18.7742L245.161 20.4425ZM242.757 12.8773L245.561 8.47303L253.527 16.4393L249.123 19.2426L242.757 12.8773ZM254.632 15.7194L246.281 7.36826C246.663 6.83745 247.263 6.51613 247.922 6.51613C248.466 6.51613 248.977 6.72782 249.361 7.11215L254.888 12.6389C255.272 13.0232 255.484 13.5341 255.484 14.0782C255.484 14.7375 255.163 15.3373 254.632 15.7194V15.7194ZM255.484 11.4103L250.59 6.51613L252.802 4.30374C253.455 3.65039 254.325 3.29032 255.249 3.29032C257.158 3.29032 258.71 4.84243 258.71 6.75082C258.71 7.6754 258.35 8.54454 257.696 9.19821L255.484 11.4103Z" fill="url(#paint1_linear)"/>
<path d="M255.484 4.58057C254.417 4.58057 253.548 5.44908 253.548 6.51605C253.548 7.58302 254.417 8.45154 255.484 8.45154C256.551 8.45154 257.419 7.58302 257.419 6.51605C257.419 5.44908 256.551 4.58057 255.484 4.58057ZM255.484 7.16121C255.128 7.16121 254.839 6.87202 254.839 6.51605C254.839 6.16008 255.128 5.87089 255.484 5.87089C255.839 5.87089 256.129 6.16008 256.129 6.51605C256.129 6.87202 255.839 7.16121 255.484 7.16121Z" fill="url(#paint2_linear)"/>
<path d="M179.828 5.02783H146.172C145.539 5.02783 145.024 5.54297 145.024 6.17637V13.9199C145.024 14.3245 145.352 14.6523 145.756 14.6523C146.161 14.6523 146.489 14.3245 146.489 13.9199V6.49268H179.512V13.9199C179.512 14.3245 179.839 14.6523 180.244 14.6523C180.649 14.6523 180.976 14.3245 180.976 13.9199V6.17637C180.976 5.54287 180.461 5.02783 179.828 5.02783Z" fill="url(#paint3_linear)"/>
<path d="M180.244 17.0933C179.839 17.0933 179.512 17.4211 179.512 17.8257V25.2529H146.489V17.8257C146.489 17.4211 146.161 17.0933 145.756 17.0933C145.352 17.0933 145.024 17.4211 145.024 17.8257V25.5692C145.024 26.2025 145.539 26.7178 146.172 26.7178H179.828C180.461 26.7178 180.977 26.2026 180.977 25.5692V17.8257C180.976 17.4213 180.649 17.0933 180.244 17.0933Z" fill="url(#paint4_linear)"/>
<path d="M187.998 36.8498C187.997 36.8425 187.997 36.8353 187.997 36.8279C187.994 36.7989 187.99 36.7705 187.984 36.7427C187.983 36.7399 187.982 36.7372 187.982 36.7345C187.976 36.7089 187.969 36.6839 187.96 36.6595C187.958 36.6529 187.956 36.6466 187.953 36.6401C187.945 36.618 187.936 36.5964 187.925 36.5754C187.924 36.5717 187.923 36.5679 187.921 36.5642L184.004 28.8378V3.41787C184.004 2.63604 183.367 2 182.586 2H143.414C142.632 2 141.996 2.63604 141.996 3.41787V28.8376L138.079 36.5641C138.077 36.5678 138.076 36.5716 138.074 36.5753C138.064 36.5963 138.055 36.6179 138.047 36.6399C138.044 36.6464 138.042 36.6528 138.04 36.6594C138.031 36.6839 138.024 36.709 138.018 36.7346C138.018 36.7372 138.017 36.7398 138.016 36.7425C138.01 36.7704 138.006 36.7988 138.003 36.8278C138.003 36.8351 138.003 36.8424 138.002 36.8496C138.001 36.8648 138 36.8799 138 36.8953V38.7533C138 39.6819 138.755 40.4373 139.684 40.4373H186.316C187.245 40.4373 188 39.6819 188 38.7533V36.8953C188 36.8799 187.999 36.8648 187.998 36.8498ZM143.461 3.46504H182.539V28.2804H143.461V3.46504ZM143.179 29.7451H182.821L186.075 36.1628H169.983L169.175 33.2342C169.011 32.638 168.464 32.2216 167.846 32.2216H158.154C157.535 32.2216 156.989 32.638 156.824 33.2341L156.017 36.1628H139.925L143.179 29.7451ZM168.464 36.1629H157.536L158.219 33.6865H167.781L168.464 36.1629ZM186.535 38.7532C186.535 38.874 186.437 38.9724 186.316 38.9724H139.684C139.563 38.9724 139.465 38.874 139.465 38.7532V37.6276H186.535V38.7532Z" fill="url(#paint5_linear)"/>
<path d="M92.1961 18.8608L87.0306 24.0263L85.6286 22.6243C85.1172 22.1129 84.2882 22.1129 83.7768 22.6243C83.2658 23.1357 83.2658 23.9647 83.7768 24.4757L86.1049 26.8038C86.3606 27.0595 86.6956 27.1872 87.0306 27.1872C87.3656 27.1872 87.7007 27.0595 87.9563 26.8038L94.0479 20.7123C94.5589 20.2009 94.5589 19.3719 94.0479 18.8608C93.5365 18.3491 92.7075 18.3491 92.1961 18.8608Z" fill="url(#paint6_linear)"/>
<path d="M89.0001 11.1919C82.8677 11.1919 77.8789 16.181 77.8789 22.3131C77.8789 28.4455 82.8677 33.4346 89.0001 33.4346C95.1322 33.4346 100.121 28.4455 100.121 22.3131C100.121 16.181 95.1322 11.1919 89.0001 11.1919ZM89.0001 30.8158C84.3116 30.8158 80.4974 27.0016 80.4974 22.3131C80.4974 17.6246 84.3116 13.8104 89.0001 13.8104C93.6883 13.8104 97.5025 17.6246 97.5025 22.3131C97.5025 27.0016 93.6883 30.8158 89.0001 30.8158Z" fill="url(#paint7_linear)"/>
<path d="M107.956 12.1079L107.955 12.0732C107.936 11.6445 107.923 11.191 107.915 10.6865C107.878 8.22597 105.922 6.19069 103.462 6.05314C98.3308 5.76682 94.3617 4.09379 90.9703 0.788253L90.9414 0.760675C89.8352 -0.253558 88.1666 -0.253558 87.0602 0.760675L87.0312 0.788253C83.6399 4.09379 79.6708 5.76682 74.54 6.05348C72.0795 6.19069 70.1232 8.22597 70.0868 10.6868C70.0793 11.188 70.066 11.6415 70.0466 12.0732L70.0446 12.1539C69.9448 17.3857 69.8209 23.897 71.9992 29.8071C73.1969 33.0572 75.0109 35.8823 77.3904 38.2046C80.1004 40.8493 83.6501 42.9489 87.9406 44.4449C88.0802 44.4936 88.2252 44.5331 88.373 44.5627C88.5813 44.6042 88.7911 44.625 89.0008 44.625C89.2105 44.625 89.4206 44.6042 89.6286 44.5627C89.7763 44.5331 89.9224 44.4932 90.0627 44.4442C94.3481 42.9455 97.894 40.8449 100.602 38.2005C102.98 35.8775 104.794 33.0517 105.993 29.801C108.179 23.8732 108.056 17.3496 107.956 12.1079ZM103.536 28.895C101.239 35.1241 96.5488 39.402 89.1986 41.9725C89.1724 41.9813 89.1445 41.9892 89.1155 41.9949C89.0396 42.0099 88.9623 42.0099 88.8854 41.9946C88.8568 41.9888 88.8288 41.9813 88.803 41.9725C81.4449 39.4068 76.752 35.1312 74.4563 28.9018C72.4486 23.4541 72.5623 17.477 72.6627 12.2039L72.6634 12.1746C72.6838 11.7215 72.6975 11.2469 72.7049 10.7253C72.7213 9.63275 73.5915 8.72883 74.6861 8.66788C77.5895 8.50582 80.1403 7.94474 82.484 6.95264C84.8247 5.9619 86.9035 4.56533 88.8387 2.68326C88.9371 2.60019 89.0648 2.59985 89.1628 2.68326C91.0984 4.56533 93.1772 5.9619 95.5175 6.95264C97.8613 7.94474 100.412 8.50582 103.316 8.66788C104.41 8.72883 105.281 9.63275 105.297 10.7256C105.304 11.2499 105.318 11.7245 105.338 12.1746C105.439 17.4538 105.55 23.4357 103.536 28.895Z" fill="url(#paint8_linear)"/>
<path d="M23.5598 17.3121L18.8173 22.0542L17.5304 20.767C17.0609 20.2978 16.2999 20.2978 15.8307 20.767C15.3611 21.2366 15.3611 21.9976 15.8307 22.4672L17.9674 24.6039C18.202 24.8388 18.5098 24.9562 18.8173 24.9562C19.1248 24.9562 19.4326 24.8388 19.6672 24.6039L25.2596 19.0119C25.7288 18.5424 25.7288 17.7813 25.2596 17.3121C24.79 16.8426 24.029 16.8426 23.5598 17.3121Z" fill="url(#paint9_linear)"/>
<path d="M20.6252 10.2725C14.9956 10.2725 10.4155 14.8523 10.4155 20.4821C10.4155 26.1117 14.9956 30.6918 20.6252 30.6918C26.2551 30.6918 30.8352 26.1117 30.8352 20.4821C30.8352 14.8523 26.2548 10.2725 20.6252 10.2725ZM20.6252 28.2876C16.3213 28.2876 12.8194 24.786 12.8194 20.4821C12.8194 16.1779 16.3213 12.6764 20.6252 12.6764C24.9294 12.6764 28.431 16.1779 28.431 20.4821C28.431 24.786 24.9294 28.2876 20.6252 28.2876Z" fill="url(#paint10_linear)"/>
<path d="M40.9873 18.1203V18.1199C40.9204 17.4812 40.5894 16.8925 40.0796 16.5024L37.746 14.6856L38.6231 11.7916C38.8102 11.1741 38.7326 10.4994 38.4101 9.94006C38.0873 9.38107 37.5418 8.97661 36.9133 8.82959L33.9777 8.14424L33.6029 5.15318C33.5225 4.51255 33.1772 3.92761 32.6554 3.54911C32.133 3.16905 31.4696 3.02109 30.8361 3.14309L27.8754 3.71083L26.3161 1.13049C25.6955 0.10355 24.3923 -0.28433 23.2856 0.227421C23.2077 0.263394 23.1327 0.306561 23.0673 0.352857L20.4976 2.14273L18.0236 0.419484C17.494 0.0509985 16.8287 -0.0831954 16.1974 0.0506856C15.5662 0.184567 15.0125 0.578703 14.6788 1.13112L13.1201 3.71115L10.159 3.14309C9.52497 3.02172 8.86213 3.16968 8.34069 3.5488C7.8183 3.92823 7.47296 4.51318 7.39288 5.15318L7.01814 8.14455L3.91323 8.86932L3.76746 8.91687L3.71366 8.94033C2.58568 9.43362 2.02138 10.6329 2.37234 11.7916L3.24914 14.6856L0.815508 16.5787L0.674432 16.7014L0.634706 16.7448C-0.182031 17.637 -0.213937 18.9864 0.558694 19.8885L2.464 22.167L0.919672 24.9695L0.85805 25.1096L0.84022 25.1618C0.455155 26.3127 0.979731 27.5633 2.06016 28.0703L4.78909 29.3509L4.53352 32.3545C4.47878 32.9979 4.69524 33.642 5.12692 34.1212C5.55859 34.6008 6.17638 34.8832 6.82201 34.8964L9.8359 34.9564L10.8244 37.8039C11.0358 38.4139 11.4953 38.9144 12.0847 39.1765C12.674 39.4389 13.3531 39.4458 13.9487 39.1953L16.7267 38.0244L18.9073 40.3514L19.0215 40.4531L19.0656 40.4859C19.4963 40.804 19.9996 40.9598 20.4982 40.9598C21.1291 40.9598 21.7523 40.7102 22.208 40.2238L24.2694 38.0244L27.0477 39.1956C27.6421 39.4458 28.3209 39.4389 28.9102 39.1768C29.5001 38.9144 29.9597 38.4139 30.1711 37.8042L31.1599 34.9564L34.348 34.8929L34.4994 34.8764L34.5538 34.8654C35.7425 34.623 36.563 33.5435 36.462 32.3548L36.2067 29.3509L38.9359 28.0703C39.52 27.7963 39.9695 27.287 40.169 26.673C40.3683 26.0593 40.3042 25.383 39.9926 24.8178L38.5318 22.167L40.4374 19.8885C40.8538 19.4021 41.0543 18.7584 40.9873 18.1203ZM36.2593 21.1366C35.8817 21.5824 35.8173 22.2233 36.0997 22.7354L37.8555 25.9216L34.562 27.4672C34.028 27.7181 33.703 28.2815 33.7527 28.8692L34.0609 32.494L30.4236 32.5666C29.8339 32.5785 29.3075 32.9607 29.1141 33.5181L27.9211 36.9549L24.5691 35.542C24.0254 35.313 23.3892 35.4478 22.9853 35.8786L20.4976 38.5331L18.0098 35.8783C17.7374 35.5874 17.3586 35.4316 16.9738 35.4316C16.789 35.4316 16.6028 35.4676 16.4267 35.542L13.0741 36.9549L11.8813 33.5191C11.6883 32.9614 11.1619 32.5785 10.5716 32.5666L6.934 32.494L7.24211 28.8692C7.29216 28.2815 6.96684 27.7181 6.43288 27.4672L3.13966 25.9216L4.89544 22.7357C5.17822 22.223 5.11347 21.5824 4.7356 21.1363L2.42458 18.3727L5.2561 16.1699C5.71968 15.8124 5.91675 15.198 5.74658 14.6381L4.6918 11.1566L8.23496 10.3289C8.80896 10.1947 9.24407 9.71171 9.31789 9.12614L9.77021 5.51635L13.3437 6.20171C13.923 6.31244 14.5167 6.04781 14.822 5.54325L16.7032 2.42958L19.6884 4.50849C20.1726 4.84569 20.8232 4.84601 21.3071 4.50849L24.2922 2.42926L26.1738 5.54231C26.4784 6.0475 27.0734 6.31244 27.6527 6.2014L31.2256 5.51604L31.6779 9.12551C31.7511 9.71077 32.1862 10.1944 32.7612 10.3289L36.304 11.1562L35.2489 14.6378C35.079 15.199 35.2764 15.813 35.74 16.1702L38.5703 18.3739L36.2593 21.1366Z" fill="url(#paint11_linear)"/>
<defs>
<linearGradient id="paint0_linear" x1="224.517" y1="35.5483" x2="224.517" y2="39.4193" gradientUnits="userSpaceOnUse">
<stop stop-color="#F2BE37"/>
<stop offset="1" stop-color="#FFE99B"/>
</linearGradient>
<linearGradient id="paint1_linear" x1="240" y1="2" x2="240" y2="42" gradientUnits="userSpaceOnUse">
<stop stop-color="#F2BE37"/>
<stop offset="1" stop-color="#FFE99B"/>
</linearGradient>
<linearGradient id="paint2_linear" x1="255.484" y1="4.58057" x2="255.484" y2="8.45153" gradientUnits="userSpaceOnUse">
<stop stop-color="#F2BE37"/>
<stop offset="1" stop-color="#FFE99B"/>
</linearGradient>
<linearGradient id="paint3_linear" x1="163" y1="5.02783" x2="163" y2="14.6523" gradientUnits="userSpaceOnUse">
<stop stop-color="#F2BE37"/>
<stop offset="1" stop-color="#FFE99B"/>
</linearGradient>
<linearGradient id="paint4_linear" x1="163" y1="17.0933" x2="163" y2="26.7178" gradientUnits="userSpaceOnUse">
<stop stop-color="#F2BE37"/>
<stop offset="1" stop-color="#FFE99B"/>
</linearGradient>
<linearGradient id="paint5_linear" x1="163" y1="2" x2="163" y2="40.4373" gradientUnits="userSpaceOnUse">
<stop stop-color="#F2BE37"/>
<stop offset="1" stop-color="#FFE99B"/>
</linearGradient>
<linearGradient id="paint6_linear" x1="88.9124" y1="18.4771" x2="88.9124" y2="27.1872" gradientUnits="userSpaceOnUse">
<stop stop-color="#F2BE37"/>
<stop offset="1" stop-color="#FFE99B"/>
</linearGradient>
<linearGradient id="paint7_linear" x1="89.0001" y1="11.1919" x2="89.0001" y2="33.4346" gradientUnits="userSpaceOnUse">
<stop stop-color="#F2BE37"/>
<stop offset="1" stop-color="#FFE99B"/>
</linearGradient>
<linearGradient id="paint8_linear" x1="89.0003" y1="0" x2="89.0003" y2="44.625" gradientUnits="userSpaceOnUse">
<stop stop-color="#F2BE37"/>
<stop offset="1" stop-color="#FFE99B"/>
</linearGradient>
<linearGradient id="paint9_linear" x1="20.545" y1="16.96" x2="20.545" y2="24.9562" gradientUnits="userSpaceOnUse">
<stop stop-color="#F2BE37"/>
<stop offset="1" stop-color="#FFE99B"/>
</linearGradient>
<linearGradient id="paint10_linear" x1="20.6254" y1="10.2725" x2="20.6254" y2="30.6918" gradientUnits="userSpaceOnUse">
<stop stop-color="#F2BE37"/>
<stop offset="1" stop-color="#FFE99B"/>
</linearGradient>
<linearGradient id="paint11_linear" x1="20.5" y1="0" x2="20.5" y2="40.9598" gradientUnits="userSpaceOnUse">
<stop stop-color="#F2BE37"/>
<stop offset="1" stop-color="#FFE99B"/>
</linearGradient>
</defs>
</svg>
