<svg width="735" height="56" viewBox="0 0 735 56" fill="none" xmlns="http://www.w3.org/2000/svg">
<path d="M476.84 21.9501L472.065 20.778C471.839 20.1594 471.579 19.54 471.287 18.925L473.774 14.7797C474.133 14.1803 474.039 13.413 473.545 12.9187L467.081 6.45524C466.587 5.96094 465.82 5.86648 465.22 6.22612L461.075 8.71328C460.46 8.42078 459.841 8.16078 459.222 7.93521L458.05 3.16025C457.883 2.47907 457.272 2 456.57 2H447.43C446.728 2 446.117 2.47907 445.95 3.16025L444.778 7.93521C444.159 8.16078 443.54 8.42078 442.925 8.71328L438.78 6.22612C438.181 5.86648 437.413 5.96094 436.919 6.45524L430.455 12.9187C429.961 13.413 429.867 14.1803 430.226 14.7797L432.713 18.925C432.421 19.54 432.161 20.1594 431.935 20.778L427.16 21.9501C426.479 22.1174 426 22.7282 426 23.4297V32.5703C426 33.2718 426.479 33.8826 427.16 34.0499L431.935 35.222C432.161 35.8406 432.421 36.46 432.713 37.075L430.226 41.2203C429.867 41.8197 429.961 42.587 430.455 43.0813L436.919 49.5448C437.413 50.0391 438.18 50.1335 438.78 49.7739L442.925 47.2867C443.54 47.5792 444.159 47.8392 444.778 48.0648L445.95 52.8397C446.122 53.5357 446.749 54 447.43 54H456.57C457.267 54 457.882 53.5196 458.05 52.8397L459.222 48.0648C459.841 47.8392 460.46 47.5792 461.075 47.2867L465.22 49.7739C465.819 50.1336 466.587 50.0392 467.081 49.5448L473.545 43.0813C474.039 42.587 474.133 41.8197 473.774 41.2203L471.287 37.075C471.579 36.46 471.839 35.8406 472.065 35.222L476.84 34.0499C477.521 33.8826 478 33.2718 478 32.5703V23.4297C478 22.7282 477.521 22.1174 476.84 21.9501ZM446.585 29.2676L451.155 32.3145C451.667 32.6556 452.333 32.6556 452.845 32.3145L457.415 29.2676C457.839 28.9851 458.094 28.5094 458.094 28V19.2466C460.927 21.2124 462.664 24.4464 462.664 28C462.664 33.8802 457.88 38.6641 452 38.6641C446.12 38.6641 441.336 33.8802 441.336 28C441.336 24.4465 443.073 21.2124 445.906 19.2466V28C445.906 28.5093 446.161 28.9851 446.585 29.2676ZM452 41.7109C453.047 41.7109 454.067 41.5925 455.047 41.3692V50.9531H448.953V41.3692C449.933 41.5925 450.953 41.7109 452 41.7109ZM474.953 31.3756L470.528 32.4617C470.012 32.5886 469.599 32.9757 469.439 33.4832C469.13 34.4629 468.713 35.4566 468.201 36.4364C467.955 36.9067 467.971 37.4711 468.244 37.9262L470.549 41.7678L465.768 46.5491L461.927 44.2441C461.471 43.971 460.907 43.9547 460.437 44.2005C459.66 44.6069 458.874 44.9517 458.094 45.2315V40.2797C462.605 38.0322 465.711 33.3724 465.711 27.9999C465.711 25.2203 464.88 22.5415 463.308 20.2532C461.775 18.0211 459.643 16.3048 457.144 15.2901C456.674 15.0994 456.14 15.1548 455.72 15.4379C455.299 15.721 455.047 16.1948 455.047 16.7017V27.1847L452 29.2159L448.953 27.1847V16.7017C448.953 16.1948 448.701 15.7211 448.281 15.4379C447.86 15.1548 447.326 15.0994 446.857 15.2901C444.357 16.3048 442.226 18.0211 440.692 20.2532C439.12 22.5416 438.289 25.2204 438.289 28C438.289 33.3725 441.396 38.0323 445.906 40.2798V45.2316C445.126 44.9518 444.34 44.6069 443.564 44.2006C443.093 43.9548 442.529 43.9711 442.074 44.2442L438.232 46.5492L433.451 41.7679L435.756 37.9263C436.029 37.4712 436.045 36.9067 435.799 36.4365C435.287 35.4567 434.871 34.463 434.562 33.4833C434.402 32.9759 433.989 32.5886 433.472 32.4618L429.047 31.3756V24.6245L433.472 23.5384C433.988 23.4115 434.401 23.0244 434.561 22.5169C434.87 21.5372 435.287 20.5435 435.799 19.5637C436.045 19.0934 436.029 18.529 435.756 18.0739L433.451 14.2323L438.232 9.45103L442.073 11.756C442.529 12.0292 443.093 12.0454 443.563 11.7996C444.543 11.2871 445.537 10.8707 446.517 10.5617C447.024 10.4018 447.411 9.9886 447.538 9.47195L448.624 5.04688H455.376L456.462 9.47175C456.589 9.9885 456.976 10.4016 457.483 10.5615C458.463 10.8705 459.457 11.2869 460.436 11.7994C460.907 12.0452 461.471 12.0289 461.926 11.7558L465.768 9.45083L470.549 14.2321L468.244 18.0737C467.971 18.5288 467.955 19.0933 468.201 19.5635C468.713 20.5433 469.13 21.537 469.438 22.5167C469.598 23.0241 470.012 23.4114 470.528 23.5382L474.953 24.6244V31.3756Z" fill="#1066E8"/>
<path d="M376 10.1228C364.645 10.1228 355.408 19.3607 355.408 30.7149C355.408 42.0698 364.646 51.3076 376 51.3076C387.355 51.3076 396.592 42.0697 396.592 30.7149C396.592 19.3607 387.354 10.1228 376 10.1228ZM376 47.5756C366.703 47.5756 359.14 40.0119 359.14 30.7156C359.14 21.4193 366.703 13.8562 376 13.8562C385.296 13.8562 392.859 21.4193 392.859 30.7156C392.859 40.0124 385.296 47.5756 376 47.5756Z" fill="#1066E8"/>
<path d="M381.723 30.0929H376.746V22.8764C376.746 21.8455 375.911 21.01 374.88 21.01C373.849 21.01 373.014 21.8455 373.014 22.8764V31.9593C373.014 32.9901 373.849 33.8257 374.88 33.8257H381.723C382.754 33.8257 383.59 32.9901 383.59 31.9593C383.59 30.9285 382.754 30.0929 381.723 30.0929Z" fill="#1066E8"/>
<path d="M365.429 44.0724C364.662 43.3825 363.482 43.4453 362.793 44.2111L357.194 50.4323C356.504 51.1981 356.566 52.3783 357.332 53.0676C357.689 53.3893 358.135 53.5473 358.58 53.5473C359.091 53.5473 359.6 53.3389 359.968 52.9289L365.567 46.7078C366.257 45.9419 366.194 44.7617 365.429 44.0724Z" fill="#1066E8"/>
<path d="M394.807 50.433L389.208 44.2118C388.52 43.4454 387.339 43.3832 386.573 44.0732C385.806 44.7625 385.745 45.9426 386.434 46.7085L392.033 52.9296C392.401 53.339 392.91 53.5474 393.421 53.5474C393.865 53.5474 394.312 53.3894 394.669 53.0683C395.435 52.379 395.497 51.1988 394.807 50.433Z" fill="#1066E8"/>
<path d="M365.112 7.17278C361.403 3.5415 355.425 3.54709 351.787 7.18649C349.976 8.99622 348.987 11.3908 349 13.929C349.014 16.4367 350.008 18.7846 351.8 20.5403C352.164 20.8955 352.635 21.0728 353.106 21.0728C353.584 21.0728 354.062 20.8899 354.426 20.5265L365.126 9.82615C365.478 9.47346 365.675 8.99495 365.672 8.49672C365.67 7.99828 365.468 7.52177 365.112 7.17278ZM353.311 16.362C352.937 15.6087 352.737 14.775 352.733 13.909C352.725 12.3762 353.326 10.9253 354.426 9.82541C355.523 8.72864 356.974 8.18053 358.433 8.18053C359.286 8.18053 360.142 8.36773 360.93 8.74225L353.311 16.362Z" fill="#1066E8"/>
<path d="M400.213 7.18576C396.574 3.547 390.596 3.54078 386.888 7.17205C386.532 7.52105 386.33 7.99766 386.327 8.49589C386.325 8.99423 386.522 9.47326 386.874 9.82532L397.574 20.5257C397.938 20.8903 398.416 21.0726 398.894 21.0726C399.365 21.0726 399.837 20.8953 400.2 20.5388C401.993 18.7838 402.987 16.436 403 13.9281C403.013 11.3907 402.023 8.99613 400.213 7.18576ZM398.689 16.3619L391.07 8.74226C393.208 7.72692 395.836 8.0872 397.575 9.82595C398.674 10.9259 399.275 12.376 399.267 13.9096C399.263 14.7749 399.063 15.6092 398.689 16.3619Z" fill="#1066E8"/>
<path d="M323.373 7.73456H315.809C316.8 6.31197 316.663 4.33564 315.395 3.06748C313.972 1.64417 311.657 1.64417 310.233 3.06748C310.074 3.22725 309.883 3.45859 309.686 3.84989C309.489 3.45859 309.298 3.22725 309.138 3.06748C307.715 1.64417 305.399 1.64417 303.976 3.06748C302.708 4.33564 302.571 6.31191 303.563 7.73456H295.998C294.342 7.73456 293 9.07704 293 10.7331V13.0797C293 14.7357 294.342 16.0782 295.998 16.0782H306.231C306.411 16.0782 306.557 15.9322 306.557 15.7523V9.37591C306.813 9.43412 307.094 9.49057 307.403 9.54428C307.855 9.62283 308.284 9.68123 308.643 9.72354V15.7522C308.643 15.9322 308.789 16.0781 308.969 16.0781H310.403C310.583 16.0781 310.729 15.9322 310.729 15.7522V9.72354C311.087 9.68123 311.517 9.62276 311.969 9.54428C312.278 9.49057 312.558 9.43412 312.814 9.37591V15.7523C312.814 15.9322 312.96 16.0782 313.14 16.0782H323.373C325.029 16.0782 326.371 14.7357 326.371 13.0797V10.7331C326.371 9.07704 325.029 7.73456 323.373 7.73456V7.73456ZM307.76 7.48921C305.907 7.16707 305.492 6.7961 305.451 6.75484C304.841 6.14484 304.841 5.15241 305.451 4.54241C305.756 4.23741 306.157 4.08494 306.557 4.08494C306.958 4.08494 307.358 4.23741 307.663 4.54241C307.704 4.58341 308.073 4.99609 308.395 6.83488C308.442 7.10253 308.481 7.36379 308.513 7.60478C308.278 7.57303 308.022 7.53484 307.76 7.48921V7.48921ZM311.628 7.48627C311.36 7.53308 311.099 7.57225 310.858 7.60465C310.89 7.3692 310.928 7.11394 310.974 6.8517C311.296 4.99883 311.667 4.58367 311.708 4.54241C312.013 4.23741 312.414 4.08494 312.814 4.08494C313.215 4.08494 313.615 4.23741 313.92 4.54241C314.53 5.15241 314.53 6.14484 313.92 6.75484C313.879 6.7959 313.467 7.16472 311.628 7.48627Z" fill="#1066E8"/>
<path d="M308.643 18.4885V35.0454C308.643 35.2254 308.789 35.3713 308.969 35.3713H310.403C310.583 35.3713 310.729 35.2254 310.729 35.0454V18.4885C310.729 18.3085 310.583 18.1626 310.403 18.1626H308.969C308.789 18.1626 308.643 18.3085 308.643 18.4885V18.4885Z" fill="#1066E8"/>
<path d="M306.231 18.1626H296.129C295.553 18.1626 295.086 18.6295 295.086 19.2056V32.3728C295.086 34.0288 296.428 35.3713 298.084 35.3713H306.231C306.411 35.3713 306.557 35.2254 306.557 35.0454V18.4885C306.557 18.3085 306.411 18.1626 306.231 18.1626V18.1626Z" fill="#1066E8"/>
<path d="M323.243 18.1626H313.14C312.96 18.1626 312.814 18.3085 312.814 18.4885V35.0454C312.814 35.2254 312.96 35.3713 313.14 35.3713H321.288C322.944 35.3713 324.286 34.0288 324.286 32.3728V19.2056C324.286 18.6295 323.819 18.1626 323.243 18.1626V18.1626Z" fill="#1066E8"/>
<path d="M224.517 35.5483C223.45 35.5483 222.581 36.4169 222.581 37.4838C222.581 38.5508 223.45 39.4193 224.517 39.4193C225.584 39.4193 226.452 38.5508 226.452 37.4838C226.452 36.4169 225.584 35.5483 224.517 35.5483ZM224.517 38.129C224.161 38.129 223.871 37.8398 223.871 37.4838C223.871 37.1279 224.161 36.8387 224.517 36.8387C224.872 36.8387 225.162 37.1279 225.162 37.4838C225.162 37.8398 224.872 38.129 224.517 38.129Z" fill="url(#paint0_linear)"/>
<path d="M260 6.75082C260 4.13174 257.869 2 255.249 2C253.98 2 252.787 2.49427 251.89 3.39176L249.592 5.68889C249.089 5.39497 248.521 5.22581 247.922 5.22581C246.78 5.22581 245.731 5.80198 245.118 6.76594L241.113 13.0582L242.313 14.2581L240.645 15.9264L240.212 15.4929C239.831 15.1124 239.326 14.9032 238.788 14.9032C237.677 14.9032 236.774 15.8064 236.774 16.9168C236.774 17.447 236.989 17.9659 237.364 18.3407L237.797 18.7742L236.129 20.4425L235.696 20.0091C235.315 19.6285 234.81 19.4194 234.272 19.4194C233.161 19.4194 232.258 20.3225 232.258 21.433C232.258 21.9631 232.473 22.482 232.848 22.8569L233.281 23.2903L231.613 24.9587L231.179 24.5252C230.799 24.1447 230.294 23.9355 229.756 23.9355C228.645 23.9355 227.742 24.8386 227.742 25.9491C227.742 26.4793 227.957 26.9981 228.332 27.373L228.765 27.8064L227.097 29.4748L226.663 29.0413C226.283 28.6608 225.777 28.4516 225.239 28.4516C224.129 28.4516 223.226 29.3548 223.226 30.4652C223.226 30.9954 223.441 31.5142 223.816 31.8891L224.249 32.3226L221.124 35.4469C220.399 36.1721 220 37.1361 220 38.1612C220 40.2781 221.722 42 223.839 42C224.864 42 225.828 41.6006 226.553 40.8754L229.677 37.751L230.111 38.1845C230.491 38.565 230.997 38.7742 231.535 38.7742C232.645 38.7742 233.548 37.871 233.548 36.7606C233.548 36.2304 233.334 35.7116 232.959 35.3367L232.525 34.9032L234.194 33.2349L234.627 33.6683C235.007 34.0489 235.513 34.2581 236.051 34.2581C237.161 34.2581 238.065 33.3549 238.065 32.2445C238.065 31.7143 237.85 31.1954 237.475 30.8206L237.041 30.3871L238.71 28.7188L239.143 29.1522C239.523 29.5328 240.029 29.7419 240.567 29.7419C241.677 29.7419 242.581 28.8388 242.581 27.7283C242.581 27.1981 242.366 26.6793 241.991 26.3044L241.557 25.871L243.226 24.2026L243.659 24.6361C244.04 25.0166 244.545 25.2258 245.083 25.2258C246.194 25.2258 247.097 24.3226 247.097 23.2122C247.097 22.682 246.882 22.1632 246.507 21.7883L246.074 21.3548L247.742 19.6865L248.942 20.8864L255.234 16.8819C256.199 16.2692 256.774 15.2208 256.774 14.0782C256.774 13.48 256.605 12.9117 256.31 12.4083L258.608 10.1108C259.506 9.21365 260 8.02004 260 6.75082ZM225.64 39.9631C225.159 40.4444 224.519 40.7097 223.839 40.7097C222.434 40.7097 221.29 39.5665 221.29 38.1612C221.29 37.4807 221.556 36.8406 222.037 36.3592L225.161 33.2349L228.765 36.8387L225.64 39.9631ZM231.535 37.4839C231.341 37.4839 231.16 37.4089 231.023 37.2722L224.728 30.9768C224.594 30.842 224.516 30.6555 224.516 30.4652C224.516 30.0664 224.841 29.7419 225.239 29.7419C225.433 29.7419 225.614 29.8169 225.751 29.9536L232.046 36.249C232.181 36.3838 232.258 36.5703 232.258 36.7606C232.258 37.1594 231.934 37.4839 231.535 37.4839ZM231.613 33.9909L228.009 30.3871L229.677 28.7188L233.281 32.3226L231.613 33.9909ZM236.051 32.9677C235.857 32.9677 235.676 32.8928 235.539 32.756L229.244 26.4607C229.11 26.3259 229.032 26.1394 229.032 25.9491C229.032 25.5503 229.357 25.2258 229.756 25.2258C229.949 25.2258 230.13 25.3008 230.267 25.4375L236.562 31.7329C236.697 31.8677 236.774 32.0542 236.774 32.2445C236.774 32.6433 236.45 32.9677 236.051 32.9677ZM236.129 29.4748L232.525 25.871L234.194 24.2026L237.797 27.8064L236.129 29.4748ZM240.567 28.4516C240.374 28.4516 240.192 28.3766 240.055 28.2399L233.76 21.9446C233.626 21.8097 233.548 21.6232 233.548 21.433C233.548 21.0341 233.873 20.7097 234.272 20.7097C234.465 20.7097 234.647 20.7847 234.783 20.9214L241.079 27.2167C241.213 27.3516 241.29 27.5381 241.29 27.7283C241.29 28.1271 240.966 28.4516 240.567 28.4516ZM240.645 24.9587L237.041 21.3548L238.71 19.6865L242.314 23.2903L240.645 24.9587ZM245.083 23.9355C244.89 23.9355 244.708 23.8605 244.572 23.7238L238.276 17.4284C238.142 17.2936 238.065 17.1071 238.065 16.9168C238.065 16.518 238.389 16.1935 238.788 16.1935C238.981 16.1935 239.163 16.2685 239.299 16.4052L245.595 22.7006C245.729 22.8354 245.806 23.0219 245.806 23.2122C245.806 23.611 245.482 23.9355 245.083 23.9355ZM245.161 20.4425L241.557 16.8387L243.226 15.1704L246.83 18.7742L245.161 20.4425ZM242.757 12.8773L245.561 8.47303L253.527 16.4393L249.123 19.2426L242.757 12.8773ZM254.632 15.7194L246.281 7.36826C246.663 6.83745 247.263 6.51613 247.922 6.51613C248.466 6.51613 248.977 6.72782 249.361 7.11215L254.888 12.6389C255.272 13.0232 255.484 13.5341 255.484 14.0782C255.484 14.7375 255.163 15.3373 254.632 15.7194ZM255.484 11.4103L250.59 6.51613L252.802 4.30374C253.455 3.65039 254.325 3.29032 255.249 3.29032C257.158 3.29032 258.71 4.84243 258.71 6.75082C258.71 7.6754 258.35 8.54454 257.696 9.19821L255.484 11.4103Z" fill="url(#paint1_linear)"/>
<path d="M255.484 4.58057C254.417 4.58057 253.548 5.44908 253.548 6.51605C253.548 7.58302 254.417 8.45154 255.484 8.45154C256.551 8.45154 257.419 7.58302 257.419 6.51605C257.419 5.44908 256.551 4.58057 255.484 4.58057ZM255.484 7.16121C255.128 7.16121 254.839 6.87202 254.839 6.51605C254.839 6.16008 255.128 5.87089 255.484 5.87089C255.839 5.87089 256.129 6.16008 256.129 6.51605C256.129 6.87202 255.839 7.16121 255.484 7.16121Z" fill="url(#paint2_linear)"/>
<path d="M179.828 5.02783H146.172C145.539 5.02783 145.024 5.54297 145.024 6.17637V13.9199C145.024 14.3245 145.352 14.6523 145.756 14.6523C146.161 14.6523 146.489 14.3245 146.489 13.9199V6.49268H179.512V13.9199C179.512 14.3245 179.839 14.6523 180.244 14.6523C180.649 14.6523 180.976 14.3245 180.976 13.9199V6.17637C180.976 5.54287 180.461 5.02783 179.828 5.02783Z" fill="url(#paint3_linear)"/>
<path d="M180.244 17.0933C179.839 17.0933 179.512 17.4211 179.512 17.8257V25.2529H146.489V17.8257C146.489 17.4211 146.161 17.0933 145.756 17.0933C145.352 17.0933 145.024 17.4211 145.024 17.8257V25.5692C145.024 26.2025 145.539 26.7178 146.172 26.7178H179.828C180.461 26.7178 180.977 26.2026 180.977 25.5692V17.8257C180.976 17.4213 180.649 17.0933 180.244 17.0933Z" fill="url(#paint4_linear)"/>
<path d="M187.998 36.8498C187.997 36.8425 187.997 36.8353 187.997 36.8279C187.994 36.7989 187.99 36.7705 187.984 36.7427C187.983 36.7399 187.982 36.7372 187.982 36.7345C187.976 36.7089 187.969 36.6839 187.96 36.6595C187.958 36.6529 187.956 36.6466 187.953 36.6401C187.945 36.618 187.936 36.5964 187.925 36.5754C187.924 36.5717 187.923 36.5679 187.921 36.5642L184.004 28.8378V3.41787C184.004 2.63604 183.367 2 182.586 2H143.414C142.632 2 141.996 2.63604 141.996 3.41787V28.8376L138.079 36.5641C138.077 36.5678 138.076 36.5716 138.074 36.5753C138.064 36.5963 138.055 36.6179 138.047 36.6399C138.044 36.6464 138.042 36.6528 138.04 36.6594C138.031 36.6839 138.024 36.709 138.018 36.7346C138.018 36.7372 138.017 36.7398 138.016 36.7425C138.01 36.7704 138.006 36.7988 138.003 36.8278C138.003 36.8351 138.003 36.8424 138.002 36.8496C138.001 36.8648 138 36.8799 138 36.8953V38.7533C138 39.6819 138.755 40.4373 139.684 40.4373H186.316C187.245 40.4373 188 39.6819 188 38.7533V36.8953C188 36.8799 187.999 36.8648 187.998 36.8498ZM143.461 3.46504H182.539V28.2804H143.461V3.46504ZM143.179 29.7451H182.821L186.075 36.1628H169.983L169.175 33.2342C169.011 32.638 168.464 32.2216 167.846 32.2216H158.154C157.535 32.2216 156.989 32.638 156.824 33.2341L156.017 36.1628H139.925L143.179 29.7451ZM168.464 36.1629H157.536L158.219 33.6865H167.781L168.464 36.1629ZM186.535 38.7532C186.535 38.874 186.437 38.9724 186.316 38.9724H139.684C139.563 38.9724 139.465 38.874 139.465 38.7532V37.6276H186.535V38.7532Z" fill="url(#paint5_linear)"/>
<path d="M92.1961 18.8608L87.0306 24.0263L85.6286 22.6243C85.1172 22.1129 84.2882 22.1129 83.7768 22.6243C83.2658 23.1357 83.2658 23.9647 83.7768 24.4757L86.1049 26.8038C86.3606 27.0595 86.6956 27.1872 87.0306 27.1872C87.3656 27.1872 87.7007 27.0595 87.9563 26.8038L94.0479 20.7123C94.5589 20.2009 94.5589 19.3719 94.0479 18.8608C93.5365 18.3491 92.7075 18.3491 92.1961 18.8608Z" fill="url(#paint6_linear)"/>
<path d="M89.0001 11.1919C82.8677 11.1919 77.8789 16.181 77.8789 22.3131C77.8789 28.4455 82.8677 33.4346 89.0001 33.4346C95.1322 33.4346 100.121 28.4455 100.121 22.3131C100.121 16.181 95.1322 11.1919 89.0001 11.1919ZM89.0001 30.8158C84.3116 30.8158 80.4974 27.0016 80.4974 22.3131C80.4974 17.6246 84.3116 13.8104 89.0001 13.8104C93.6883 13.8104 97.5025 17.6246 97.5025 22.3131C97.5025 27.0016 93.6883 30.8158 89.0001 30.8158Z" fill="url(#paint7_linear)"/>
<path d="M107.956 12.1079L107.955 12.0732C107.936 11.6445 107.923 11.191 107.915 10.6865C107.878 8.22597 105.922 6.19069 103.462 6.05314C98.3308 5.76682 94.3617 4.09379 90.9703 0.788253L90.9414 0.760675C89.8352 -0.253558 88.1666 -0.253558 87.0602 0.760675L87.0312 0.788253C83.6399 4.09379 79.6708 5.76682 74.54 6.05348C72.0795 6.19069 70.1232 8.22597 70.0868 10.6868C70.0793 11.188 70.066 11.6415 70.0466 12.0732L70.0446 12.1539C69.9448 17.3857 69.8209 23.897 71.9992 29.8071C73.1969 33.0572 75.0109 35.8823 77.3904 38.2046C80.1004 40.8493 83.6501 42.9489 87.9406 44.4449C88.0802 44.4936 88.2252 44.5331 88.373 44.5627C88.5813 44.6042 88.7911 44.625 89.0008 44.625C89.2105 44.625 89.4206 44.6042 89.6286 44.5627C89.7764 44.5331 89.9224 44.4932 90.0627 44.4442C94.3481 42.9455 97.894 40.8449 100.602 38.2005C102.98 35.8775 104.794 33.0517 105.993 29.801C108.179 23.8732 108.056 17.3496 107.956 12.1079ZM103.536 28.895C101.239 35.1241 96.5488 39.402 89.1986 41.9725C89.1724 41.9813 89.1445 41.9892 89.1155 41.9949C89.0396 42.0099 88.9623 42.0099 88.8854 41.9946C88.8568 41.9888 88.8288 41.9813 88.803 41.9725C81.4449 39.4068 76.752 35.1312 74.4563 28.9018C72.4486 23.4541 72.5623 17.477 72.6627 12.2039L72.6634 12.1746C72.6838 11.7215 72.6975 11.2469 72.7049 10.7253C72.7213 9.63275 73.5915 8.72883 74.6861 8.66788C77.5895 8.50582 80.1403 7.94474 82.484 6.95264C84.8247 5.9619 86.9035 4.56533 88.8387 2.68326C88.9371 2.60019 89.0648 2.59985 89.1628 2.68326C91.0984 4.56533 93.1772 5.9619 95.5175 6.95264C97.8613 7.94474 100.412 8.50582 103.316 8.66788C104.41 8.72883 105.281 9.63275 105.297 10.7256C105.304 11.2499 105.318 11.7245 105.338 12.1746C105.439 17.4538 105.55 23.4357 103.536 28.895Z" fill="url(#paint8_linear)"/>
<path d="M23.5598 17.3121L18.8173 22.0542L17.5304 20.767C17.0609 20.2978 16.2999 20.2978 15.8307 20.767C15.3611 21.2366 15.3611 21.9976 15.8307 22.4672L17.9674 24.6039C18.202 24.8388 18.5098 24.9562 18.8173 24.9562C19.1248 24.9562 19.4326 24.8388 19.6672 24.6039L25.2596 19.0119C25.7288 18.5424 25.7288 17.7813 25.2596 17.3121C24.79 16.8426 24.029 16.8426 23.5598 17.3121Z" fill="url(#paint9_linear)"/>
<path d="M20.6252 10.2725C14.9956 10.2725 10.4155 14.8523 10.4155 20.4821C10.4155 26.1117 14.9956 30.6918 20.6252 30.6918C26.2551 30.6918 30.8352 26.1117 30.8352 20.4821C30.8352 14.8523 26.2548 10.2725 20.6252 10.2725ZM20.6252 28.2876C16.3213 28.2876 12.8194 24.786 12.8194 20.4821C12.8194 16.1779 16.3213 12.6764 20.6252 12.6764C24.9294 12.6764 28.431 16.1779 28.431 20.4821C28.431 24.786 24.9294 28.2876 20.6252 28.2876Z" fill="url(#paint10_linear)"/>
<path d="M40.9873 18.1203V18.1199C40.9204 17.4812 40.5894 16.8925 40.0796 16.5024L37.746 14.6856L38.6231 11.7916C38.8102 11.1741 38.7326 10.4994 38.4101 9.94006C38.0873 9.38107 37.5418 8.97661 36.9133 8.82959L33.9777 8.14424L33.6029 5.15318C33.5225 4.51255 33.1772 3.92761 32.6554 3.54911C32.133 3.16905 31.4696 3.02109 30.8361 3.14309L27.8754 3.71083L26.3161 1.13049C25.6955 0.10355 24.3923 -0.28433 23.2856 0.227421C23.2077 0.263394 23.1327 0.306561 23.0673 0.352857L20.4976 2.14273L18.0236 0.419484C17.494 0.0509985 16.8287 -0.0831954 16.1974 0.0506856C15.5662 0.184567 15.0125 0.578703 14.6788 1.13112L13.1201 3.71115L10.159 3.14309C9.52497 3.02172 8.86213 3.16968 8.34069 3.5488C7.8183 3.92823 7.47296 4.51318 7.39288 5.15318L7.01814 8.14455L3.91323 8.86932L3.76746 8.91687L3.71366 8.94033C2.58568 9.43362 2.02138 10.6329 2.37234 11.7916L3.24914 14.6856L0.815508 16.5787L0.674432 16.7014L0.634706 16.7448C-0.182031 17.637 -0.213937 18.9864 0.558694 19.8885L2.464 22.167L0.919672 24.9695L0.85805 25.1096L0.84022 25.1618C0.455155 26.3127 0.979731 27.5633 2.06016 28.0703L4.78908 29.3509L4.53352 32.3545C4.47878 32.998 4.69524 33.642 5.12692 34.1212C5.55859 34.6008 6.17638 34.8832 6.82201 34.8964L9.8359 34.9564L10.8244 37.8039C11.0358 38.4139 11.4953 38.9144 12.0847 39.1765C12.674 39.4389 13.3531 39.4458 13.9487 39.1953L16.7267 38.0244L18.9073 40.3514L19.0215 40.4531L19.0656 40.4859C19.4963 40.804 19.9996 40.9598 20.4982 40.9598C21.1291 40.9598 21.7523 40.7102 22.208 40.2238L24.2694 38.0244L27.0477 39.1956C27.6421 39.4458 28.3209 39.4389 28.9102 39.1768C29.5001 38.9144 29.9597 38.4139 30.1711 37.8042L31.1599 34.9564L34.348 34.8929L34.4994 34.8764L34.5538 34.8654C35.7425 34.623 36.563 33.5435 36.462 32.3548L36.2067 29.3509L38.9359 28.0703C39.52 27.7963 39.9695 27.287 40.169 26.673C40.3683 26.0593 40.3042 25.383 39.9926 24.8178L38.5318 22.167L40.4374 19.8885C40.8538 19.4021 41.0543 18.7584 40.9873 18.1203ZM36.2593 21.1366C35.8817 21.5824 35.8173 22.2233 36.0997 22.7354L37.8555 25.9216L34.562 27.4672C34.028 27.7181 33.703 28.2815 33.7528 28.8692L34.0609 32.494L30.4236 32.5666C29.8339 32.5785 29.3075 32.9607 29.1141 33.5181L27.9211 36.9549L24.5691 35.542C24.0254 35.313 23.3892 35.4478 22.9853 35.8786L20.4976 38.5331L18.0098 35.8783C17.7374 35.5874 17.3586 35.4316 16.9738 35.4316C16.789 35.4316 16.6028 35.4676 16.4267 35.542L13.0741 36.9549L11.8813 33.5191C11.6883 32.9614 11.1619 32.5785 10.5716 32.5666L6.934 32.494L7.24211 28.8692C7.29216 28.2815 6.96684 27.7181 6.43288 27.4672L3.13966 25.9216L4.89544 22.7357C5.17822 22.223 5.11347 21.5824 4.7356 21.1363L2.42458 18.3727L5.2561 16.1699C5.71968 15.8124 5.91675 15.198 5.74658 14.6381L4.6918 11.1566L8.23496 10.3289C8.80896 10.1947 9.24407 9.71171 9.31789 9.12613L9.77021 5.51635L13.3437 6.20171C13.923 6.31244 14.5167 6.04781 14.822 5.54325L16.7032 2.42958L19.6884 4.50849C20.1726 4.84569 20.8232 4.84601 21.3071 4.50849L24.2922 2.42926L26.1738 5.54231C26.4784 6.0475 27.0734 6.31244 27.6527 6.2014L31.2256 5.51604L31.6779 9.12551C31.7511 9.71077 32.1862 10.1944 32.7612 10.3289L36.304 11.1562L35.2489 14.6378C35.079 15.199 35.2764 15.813 35.74 16.1702L38.5703 18.3739L36.2593 21.1366Z" fill="url(#paint11_linear)"/>
<path d="M527 2C512.641 2 501 13.6406 501 27.9999C501 42.3593 512.641 53.9999 527 53.9999C541.359 53.9999 553 42.3593 553 27.9999C552.985 13.647 541.353 2.01534 527 2ZM527 50.2856C514.692 50.2856 504.714 40.308 504.714 27.9999C504.714 15.6919 514.692 5.71425 527 5.71425C539.308 5.71425 549.286 15.6919 549.286 27.9999C549.272 40.3026 539.303 50.2724 527 50.2856Z" fill="#1066E8"/>
<path d="M527 11.2856C525.974 11.2856 525.143 12.1171 525.143 13.1428V26.1428H512.143C511.117 26.1428 510.286 26.9743 510.286 28C510.286 29.0257 511.117 29.8571 512.143 29.8571H527C528.026 29.8571 528.857 29.0256 528.857 27.9999V13.1428C528.857 12.1171 528.026 11.2856 527 11.2856Z" fill="#1066E8"/>
<path fill-rule="evenodd" clip-rule="evenodd" d="M601.999 11.3893C601.998 11.379 601.998 11.3688 601.997 11.3585C601.994 11.3179 601.99 11.2779 601.982 11.2384C601.982 11.2384 601.982 11.2384 601.982 11.238C601.974 11.1985 601.963 11.1593 601.951 11.1212C601.948 11.1117 601.944 11.1022 601.941 11.0926C601.927 11.0564 601.912 11.0209 601.895 10.9864C601.894 10.9846 601.893 10.9828 601.892 10.9809C601.874 10.9451 601.852 10.911 601.829 10.8777C601.823 10.8692 601.817 10.8612 601.811 10.8528C601.786 10.8198 601.76 10.788 601.731 10.7583L593.408 2.27466C593.379 2.24499 593.348 2.21863 593.315 2.19336C593.307 2.18713 593.299 2.18054 593.291 2.17468C593.258 2.15088 593.225 2.12891 593.19 2.11023C593.187 2.10876 593.185 2.10803 593.183 2.10657C593.15 2.08899 593.115 2.07397 593.08 2.06042C593.071 2.05676 593.061 2.05347 593.051 2.05017C593.014 2.03735 592.976 2.026 592.937 2.01794C592.937 2.01794 592.936 2.01794 592.936 2.01794C592.898 2.01025 592.859 2.00586 592.819 2.00293C592.809 2.00256 592.799 2.00183 592.789 2.00146C592.779 2.0011 592.768 2 592.758 2H571.92C571.412 2 571 2.41968 571 2.9375V43.0646C571 43.5825 571.412 44.0021 571.92 44.0021H585.767V49.0624C585.767 49.4034 585.949 49.7176 586.241 49.8827C586.534 50.0479 586.892 50.038 587.175 49.8567L590.678 47.6166L594.181 49.8567C594.33 49.952 594.5 49.9999 594.67 49.9999C594.823 49.9999 594.977 49.9611 595.115 49.8831C595.408 49.7179 595.59 49.4037 595.59 49.0624V44.0021H601.08C601.588 44.0021 602 43.5825 602 43.0646V11.4211C602 11.4105 601.999 11.3999 601.999 11.3893ZM593.678 5.20105L598.86 10.4836H593.678V5.20105ZM585.313 30.9566C585.248 30.7775 585.143 30.4849 585.141 30.3652C585.212 30.2744 585.462 30.1136 585.614 30.0155C585.942 29.8045 586.314 29.565 586.583 29.1908C586.855 28.8125 586.966 28.3756 587.063 27.9903C587.106 27.8219 587.175 27.5498 587.234 27.4469C587.266 27.4399 587.334 27.43 587.462 27.43C587.564 27.43 587.679 27.4359 587.8 27.4421C587.94 27.4491 588.083 27.4564 588.233 27.4564C588.565 27.4564 588.832 27.4183 589.075 27.3359C589.498 27.1923 589.837 26.9144 590.136 26.669C590.301 26.5335 590.578 26.3065 590.674 26.2926C590.779 26.3065 591.056 26.5335 591.221 26.669C591.52 26.9144 591.859 27.1923 592.282 27.3359C592.525 27.4183 592.792 27.4564 593.124 27.4564C593.273 27.4564 593.417 27.4491 593.556 27.4421C593.678 27.4359 593.792 27.43 593.895 27.43C594.023 27.43 594.09 27.4395 594.123 27.4469C594.182 27.5498 594.251 27.8219 594.293 27.9903C594.391 28.3756 594.502 28.8125 594.774 29.1908C595.043 29.565 595.415 29.8042 595.743 30.0155C595.895 30.114 596.144 30.2744 596.216 30.3652C596.214 30.4849 596.108 30.7775 596.044 30.9566C595.907 31.3364 595.752 31.767 595.752 32.2442C595.752 32.7214 595.907 33.1521 596.044 33.5322C596.108 33.7113 596.214 34.0039 596.216 34.1236C596.144 34.2144 595.895 34.3748 595.743 34.4733C595.415 34.6843 595.043 34.9238 594.774 35.298C594.502 35.6763 594.391 36.1132 594.293 36.4985C594.251 36.6666 594.182 36.939 594.123 37.0419C594.09 37.0489 594.023 37.0588 593.895 37.0588C593.792 37.0588 593.678 37.0529 593.556 37.0467C593.417 37.0397 593.273 37.0324 593.124 37.0324C592.792 37.0324 592.525 37.0705 592.282 37.1529C591.859 37.2965 591.52 37.5748 591.221 37.8198C591.058 37.9538 590.786 38.1761 590.678 38.1959C590.57 38.1761 590.299 37.9538 590.136 37.8198C589.837 37.5748 589.498 37.2965 589.075 37.1529C588.832 37.0705 588.565 37.0324 588.233 37.0324C588.084 37.0324 587.94 37.0397 587.8 37.0467C587.679 37.0529 587.565 37.0588 587.462 37.0588C587.334 37.0588 587.267 37.0489 587.234 37.0419C587.175 36.939 587.106 36.6669 587.063 36.4985C586.966 36.1132 586.855 35.6763 586.583 35.298C586.314 34.9238 585.942 34.6843 585.614 34.4733C585.462 34.3752 585.213 34.2144 585.141 34.1236C585.143 34.0042 585.249 33.7113 585.313 33.5322C585.45 33.1524 585.605 32.7218 585.605 32.2446C585.605 31.767 585.449 31.3364 585.313 30.9566ZM593.75 47.3676L591.167 45.7156C590.868 45.5248 590.488 45.5248 590.189 45.7156L587.606 47.3676V38.9309C587.704 38.9279 587.8 38.9243 587.893 38.9195C588.015 38.9129 588.13 38.907 588.233 38.907C588.397 38.907 588.466 38.9224 588.493 38.9316C588.603 38.9689 588.813 39.1418 588.983 39.2806C589.412 39.6329 589.946 40.0712 590.678 40.0712C591.411 40.0712 591.945 39.6329 592.374 39.2806C592.543 39.1418 592.754 38.9689 592.863 38.9319C592.89 38.9228 592.96 38.9074 593.123 38.9074C593.227 38.9074 593.342 38.9133 593.464 38.9195C593.557 38.9243 593.653 38.9283 593.75 38.9309V47.3676H593.75ZM595.59 42.1271V38.1754C595.863 37.7967 595.978 37.3485 596.074 36.9676C596.125 36.7676 596.194 36.4941 596.257 36.4066C596.32 36.3187 596.554 36.1682 596.725 36.0583C597.178 35.7668 597.741 35.4039 597.965 34.7176C598.186 34.0405 597.956 33.4007 597.771 32.8866C597.687 32.6533 597.591 32.3885 597.591 32.2442C597.591 32.0999 597.687 31.8355 597.771 31.6023C597.956 31.0881 598.186 30.448 597.965 29.7708C597.741 29.0849 597.178 28.722 596.725 28.4305C596.554 28.3206 596.32 28.1698 596.257 28.0826C596.194 27.9947 596.125 27.7212 596.074 27.5212C595.942 26.9994 595.777 26.3497 595.214 25.9286C594.766 25.5938 594.247 25.555 593.895 25.555C593.746 25.555 593.602 25.5623 593.464 25.5697C593.342 25.5759 593.227 25.5818 593.124 25.5818C592.96 25.5818 592.89 25.5664 592.863 25.5572C592.754 25.5202 592.544 25.3474 592.374 25.2082C591.945 24.8563 591.411 24.4179 590.678 24.4179C589.946 24.4179 589.412 24.8563 588.983 25.2082C588.813 25.347 588.603 25.5202 588.494 25.5572C588.467 25.5664 588.397 25.5818 588.233 25.5818C588.13 25.5818 588.015 25.5759 587.893 25.5693C587.754 25.5623 587.611 25.555 587.462 25.555C587.11 25.555 586.591 25.5938 586.143 25.9286C585.58 26.3497 585.415 26.9994 585.282 27.5212C585.232 27.7212 585.162 27.9947 585.1 28.0822C585.036 28.1698 584.802 28.3206 584.632 28.4305C584.179 28.722 583.616 29.0849 583.392 29.7708C583.171 30.4483 583.401 31.0881 583.586 31.6023C583.67 31.8355 583.765 32.0999 583.765 32.2442C583.765 32.3885 583.67 32.6533 583.586 32.8866C583.401 33.4007 583.171 34.0405 583.392 34.718C583.616 35.4039 584.179 35.7668 584.632 36.0583C584.803 36.1682 585.036 36.319 585.1 36.4066C585.162 36.4941 585.232 36.7676 585.282 36.9676C585.379 37.3485 585.494 37.7971 585.767 38.1754V42.1271H572.839V3.875H591.838V11.4211C591.838 11.9389 592.25 12.3586 592.758 12.3586H600.161V42.1271H595.59Z" fill="#1066E8"/>
<path fill-rule="evenodd" clip-rule="evenodd" d="M576.414 12.3589H588.263C588.771 12.3589 589.183 11.9392 589.183 11.4214C589.183 10.9036 588.771 10.4839 588.263 10.4839H576.414C575.906 10.4839 575.494 10.9036 575.494 11.4214C575.494 11.9392 575.906 12.3589 576.414 12.3589Z" fill="#1066E8"/>
<path fill-rule="evenodd" clip-rule="evenodd" d="M596.689 15.2156H576.414C575.906 15.2156 575.494 15.6353 575.494 16.1531C575.494 16.6709 575.906 17.0906 576.414 17.0906H596.689C597.197 17.0906 597.609 16.6709 597.609 16.1531C597.609 15.6353 597.197 15.2156 596.689 15.2156Z" fill="#1066E8"/>
<path fill-rule="evenodd" clip-rule="evenodd" d="M593.01 19.948H576.414C575.906 19.948 575.494 20.368 575.494 20.8855C575.494 21.4033 575.906 21.823 576.414 21.823H593.01C593.518 21.823 593.93 21.4033 593.93 20.8855C593.93 20.368 593.518 19.948 593.01 19.948Z" fill="#1066E8"/>
<path fill-rule="evenodd" clip-rule="evenodd" d="M596.689 19.948C596.182 19.948 595.769 20.3691 595.769 20.8855C595.769 21.4019 596.182 21.823 596.689 21.823C597.196 21.823 597.609 21.4019 597.609 20.8855C597.609 20.3691 597.196 19.948 596.689 19.948Z" fill="#1066E8"/>
<path d="M659.466 2H631.66C629.247 2 627.284 4.05402 627.284 6.57056L627.105 32.4283H621.678C621.294 32.4283 621 32.7873 621 33.1935V36.7521C621 40.0834 623.524 42.8079 626.571 42.9573V43H649.986V42.9519C650.16 42.9594 650.265 43 650.385 43H650.402C653.651 42.9799 656.27 40.1829 656.253 36.7514V14.1345H663.322C663.706 14.1345 664 13.7668 664 13.361V6.83162C664.004 4.17791 661.978 2.01903 659.466 2V2ZM626.876 41.5291H626.871C624.394 41.5291 622.393 39.367 622.393 36.7514V33.8991H644.502V36.7392C644.497 38.3946 645.116 39.984 646.223 41.156C646.34 41.281 646.463 41.3453 646.589 41.5291H626.876ZM654.86 36.7507C654.86 39.367 652.879 41.5291 650.401 41.5291H650.386C647.896 41.5101 645.889 39.3696 645.895 36.7395V33.1935C645.897 32.7816 645.588 32.4426 645.198 32.4283H628.497L628.677 6.57558C628.677 4.86522 630.015 3.47085 631.66 3.47085H656.178C655.384 4.39013 654.86 5.55324 654.86 6.85137V36.7507ZM662.607 6.84455V12.6637H656.253V6.84993C656.253 5.00921 657.703 3.47085 659.445 3.47085H659.464C661.211 3.48917 662.615 4.99413 662.607 6.83916V6.84455Z" fill="#1066E8"/>
<path d="M637.352 20.102L640.942 22.6943C641.176 22.8649 641.486 22.8649 641.72 22.6943L645.3 20.1027C646.543 19.2068 647.462 17.3338 647.462 15.7455V10.5006C647.469 10.2233 647.324 9.96622 647.09 9.84018L641.624 7.00046C641.432 6.89991 641.207 6.89991 641.015 7.00046L635.559 9.83228C635.325 9.95832 635.18 10.2154 635.188 10.4927V15.7455C635.188 17.3338 636.109 19.2068 637.352 20.102ZM636.581 10.9516L641.325 8.47957L646.069 10.9584V15.7455C646.069 16.8533 645.381 18.2624 644.514 18.8869L641.317 21.1962L638.132 18.8872C637.265 18.262 636.581 16.8533 636.581 15.7455V10.9516Z" fill="#1066E8"/>
<path d="M640.147 16.8557C640.277 16.9958 640.454 17.0751 640.64 17.0762H640.642C640.827 17.0755 641.004 16.9972 641.134 16.8586L643.904 13.932C644.177 13.6447 644.177 13.1786 643.905 12.8913C643.633 12.6037 643.192 12.6037 642.92 12.8909L640.644 15.2937L639.735 14.3237C639.464 14.035 639.023 14.0329 638.749 14.3191C638.476 14.6053 638.474 15.071 638.745 15.3597L640.147 16.8557Z" fill="#1066E8"/>
<path d="M649.986 24.7983H633.273C632.888 24.7983 632.577 25.1276 632.577 25.5338C632.577 25.9399 632.888 26.2692 633.273 26.2692H649.986C650.37 26.2692 650.682 25.9399 650.682 25.5338C650.682 25.1276 650.37 24.7983 649.986 24.7983Z" fill="#1066E8"/>
<path d="M649.986 28.1995H633.273C632.888 28.1995 632.577 28.5288 632.577 28.9349C632.577 29.341 632.888 29.6703 633.273 29.6703H649.986C650.37 29.6703 650.682 29.341 650.682 28.9349C650.682 28.5288 650.37 28.1995 649.986 28.1995Z" fill="#1066E8"/>
<path d="M701.901 2.72129C701.46 2.33349 700.783 2.40597 700.435 2.87805L692.618 13.4785C692.251 13.9754 691.526 14.0249 691.096 13.5824L687.217 9.59544C686.824 9.19179 686.176 9.1919 685.783 9.5957L684.678 10.7328C684.3 11.121 684.3 11.7389 684.678 12.127L691.52 19.1648C691.947 19.6041 692.665 19.5596 693.035 19.0709L703.44 5.31145C703.756 4.89409 703.696 4.30397 703.304 3.95801L701.901 2.72129Z" fill="#1066E8"/>
<path d="M732.901 2.72129C732.46 2.33349 731.783 2.40597 731.435 2.87805L723.618 13.4785C723.251 13.9754 722.526 14.0249 722.096 13.5824L718.217 9.59544C717.824 9.19179 717.176 9.1919 716.783 9.5957L715.678 10.7328C715.3 11.121 715.3 11.7389 715.678 12.127L722.52 19.1648C722.947 19.6041 723.665 19.5596 724.035 19.0709L734.44 5.31145C734.756 4.89409 734.696 4.30397 734.304 3.95801L732.901 2.72129Z" fill="white"/>
<defs>
<linearGradient id="paint0_linear" x1="224.517" y1="35.5483" x2="224.517" y2="39.4193" gradientUnits="userSpaceOnUse">
<stop stop-color="#F2BE37"/>
<stop offset="1" stop-color="#FFE99B"/>
</linearGradient>
<linearGradient id="paint1_linear" x1="240" y1="2" x2="240" y2="42" gradientUnits="userSpaceOnUse">
<stop stop-color="#F2BE37"/>
<stop offset="1" stop-color="#FFE99B"/>
</linearGradient>
<linearGradient id="paint2_linear" x1="255.484" y1="4.58057" x2="255.484" y2="8.45153" gradientUnits="userSpaceOnUse">
<stop stop-color="#F2BE37"/>
<stop offset="1" stop-color="#FFE99B"/>
</linearGradient>
<linearGradient id="paint3_linear" x1="163" y1="5.02783" x2="163" y2="14.6523" gradientUnits="userSpaceOnUse">
<stop stop-color="#F2BE37"/>
<stop offset="1" stop-color="#FFE99B"/>
</linearGradient>
<linearGradient id="paint4_linear" x1="163" y1="17.0933" x2="163" y2="26.7178" gradientUnits="userSpaceOnUse">
<stop stop-color="#F2BE37"/>
<stop offset="1" stop-color="#FFE99B"/>
</linearGradient>
<linearGradient id="paint5_linear" x1="163" y1="2" x2="163" y2="40.4373" gradientUnits="userSpaceOnUse">
<stop stop-color="#F2BE37"/>
<stop offset="1" stop-color="#FFE99B"/>
</linearGradient>
<linearGradient id="paint6_linear" x1="88.9124" y1="18.4771" x2="88.9124" y2="27.1872" gradientUnits="userSpaceOnUse">
<stop stop-color="#F2BE37"/>
<stop offset="1" stop-color="#FFE99B"/>
</linearGradient>
<linearGradient id="paint7_linear" x1="89.0001" y1="11.1919" x2="89.0001" y2="33.4346" gradientUnits="userSpaceOnUse">
<stop stop-color="#F2BE37"/>
<stop offset="1" stop-color="#FFE99B"/>
</linearGradient>
<linearGradient id="paint8_linear" x1="89.0003" y1="0" x2="89.0003" y2="44.625" gradientUnits="userSpaceOnUse">
<stop stop-color="#F2BE37"/>
<stop offset="1" stop-color="#FFE99B"/>
</linearGradient>
<linearGradient id="paint9_linear" x1="20.545" y1="16.96" x2="20.545" y2="24.9562" gradientUnits="userSpaceOnUse">
<stop stop-color="#F2BE37"/>
<stop offset="1" stop-color="#FFE99B"/>
</linearGradient>
<linearGradient id="paint10_linear" x1="20.6254" y1="10.2725" x2="20.6254" y2="30.6918" gradientUnits="userSpaceOnUse">
<stop stop-color="#F2BE37"/>
<stop offset="1" stop-color="#FFE99B"/>
</linearGradient>
<linearGradient id="paint11_linear" x1="20.5" y1="0" x2="20.5" y2="40.9598" gradientUnits="userSpaceOnUse">
<stop stop-color="#F2BE37"/>
<stop offset="1" stop-color="#FFE99B"/>
</linearGradient>
</defs>
</svg>
