<svg width="148" height="34" viewBox="0 0 148 34" fill="none" xmlns="http://www.w3.org/2000/svg">
<path d="M9.99969 25.4869V26.9923C10.0003 27.1321 9.97157 27.2704 9.91548 27.3985C9.85938 27.5265 9.7771 27.6414 9.67392 27.7359C9.57073 27.8304 9.44891 27.9023 9.31626 27.9471C9.18361 27.9919 9.04305 28.0085 8.90359 27.9959C7.3564 27.8281 5.87022 27.3005 4.56445 26.4554C3.34961 25.685 2.31963 24.657 1.54767 23.4446C0.69793 22.1355 0.169121 20.645 0.00408106 19.094C-0.0084836 18.9552 0.00804054 18.8154 0.0526012 18.6833C0.0971618 18.5513 0.168783 18.4299 0.262904 18.327C0.357025 18.2241 0.471584 18.1419 0.599288 18.0856C0.726991 18.0293 0.865041 18.0002 1.00465 18H2.51304C2.75705 17.9977 2.99361 18.0839 3.17862 18.2427C3.36364 18.4015 3.48448 18.622 3.51863 18.8631C3.5823 19.3449 3.70037 19.8179 3.87059 20.2732C3.93824 20.4528 3.95288 20.648 3.91278 20.8357C3.87268 21.0233 3.77952 21.1956 3.64433 21.332L3.00578 21.9693C3.72154 23.2256 4.76379 24.2658 6.02256 24.9801L6.66112 24.3428C6.79782 24.2079 6.97041 24.1149 7.15844 24.0749C7.34647 24.0349 7.54206 24.0495 7.72202 24.117C8.17819 24.2869 8.65216 24.4047 9.13488 24.4683C9.37912 24.5027 9.60218 24.6254 9.76163 24.8133C9.92109 25.0011 10.0058 25.2408 9.99969 25.4869Z" fill="white"/>
<path d="M9.99969 8.48692V9.99232C10.0003 10.1321 9.97157 10.2704 9.91548 10.3985C9.85938 10.5265 9.7771 10.6414 9.67392 10.7359C9.57073 10.8304 9.44891 10.9023 9.31626 10.9471C9.18361 10.9919 9.04305 11.0085 8.90359 10.9959C7.3564 10.8281 5.87022 10.3005 4.56445 9.4554C3.34961 8.68496 2.31963 7.65703 1.54767 6.44459C0.69793 5.13549 0.169121 3.64504 0.00408106 2.09397C-0.00848359 1.95521 0.00804054 1.81536 0.0526012 1.68331C0.0971618 1.55127 0.168783 1.42994 0.262904 1.32703C0.357025 1.22413 0.471584 1.14191 0.599288 1.08562C0.726991 1.02932 0.865041 1.00018 1.00465 1.00005H2.51304C2.75705 0.997652 2.99361 1.08389 3.17862 1.24269C3.36364 1.40148 3.48448 1.622 3.51863 1.86315C3.5823 2.34491 3.70037 2.81794 3.87059 3.27321C3.93824 3.45281 3.95288 3.64801 3.91278 3.83567C3.87268 4.02332 3.77952 4.19557 3.64433 4.33201L3.00578 4.9693C3.72154 6.22558 4.76379 7.26576 6.02256 7.9801L6.66112 7.34281C6.79782 7.2079 6.97041 7.11492 7.15844 7.0749C7.34647 7.03488 7.54206 7.04949 7.72202 7.117C8.17819 7.28689 8.65216 7.40473 9.13488 7.46827C9.37912 7.50265 9.60218 7.62543 9.76163 7.81325C9.92109 8.00107 10.0058 8.24083 9.99969 8.48692Z" fill="#1066E8"/>
<path d="M47.265 22.0357C47.2794 20.3438 45.8384 18.7928 44.0529 18.5784C44.0173 18.5741 43.9787 18.5677 43.9377 18.5609C43.8493 18.5463 43.7579 18.5312 43.6657 18.5312C43.2997 18.5312 43.2019 18.7883 43.1761 18.9416C43.1511 19.0907 43.175 19.2159 43.247 19.3139C43.3682 19.4787 43.5814 19.5079 43.7527 19.5314C43.8029 19.5383 43.8503 19.5448 43.8899 19.5537C45.4942 19.9121 46.0344 20.4757 46.2984 22.0663C46.3048 22.1052 46.3077 22.1531 46.3108 22.2039C46.3223 22.394 46.3463 22.7896 46.7716 22.7896H46.7717C46.8071 22.7896 46.8451 22.7866 46.8848 22.7805C47.2808 22.7203 47.2684 22.3587 47.2624 22.185C47.2607 22.1361 47.2591 22.0898 47.2633 22.059C47.2644 22.0512 47.2649 22.0434 47.265 22.0357Z" fill="white"/>
<path d="M43.5618 17.9573C43.6093 17.9607 43.6543 17.964 43.6917 17.9698C46.3261 18.3749 47.5376 19.623 47.8733 22.278C47.879 22.3232 47.8799 22.3782 47.8808 22.4365C47.8842 22.6439 47.8911 23.0754 48.3545 23.0844L48.3689 23.0845C48.5142 23.0845 48.6299 23.0407 48.7125 22.9541C48.8568 22.8032 48.8467 22.5791 48.8386 22.3989C48.8366 22.3547 48.8347 22.3131 48.8352 22.2767C48.8687 19.5613 46.5183 17.099 43.8054 17.0075C43.7941 17.0071 43.7834 17.0077 43.7725 17.0093C43.7672 17.01 43.7573 17.011 43.7404 17.011C43.7134 17.011 43.6801 17.0087 43.6448 17.0063C43.6021 17.0034 43.5537 17 43.5047 17C43.0727 17 42.9905 17.3071 42.98 17.4901C42.9558 17.9132 43.3651 17.943 43.5618 17.9573Z" fill="white"/>
<path d="M47.7463 25.7094C47.6903 25.6666 47.6324 25.6223 47.5782 25.5786C47.2905 25.3472 46.9845 25.1338 46.6886 24.9275C46.6272 24.8847 46.5658 24.8419 46.5046 24.7989C46.1255 24.5327 45.7847 24.4033 45.4627 24.4033C45.029 24.4033 44.6509 24.6429 44.3389 25.1154C44.2006 25.3249 44.0329 25.4267 43.8261 25.4267C43.7039 25.4267 43.565 25.3918 43.4134 25.323C42.1898 24.7681 41.316 23.9174 40.8164 22.7944C40.5749 22.2517 40.6532 21.8969 41.0783 21.6081C41.3196 21.4443 41.7689 21.1393 41.7371 20.5553C41.7011 19.892 40.2377 17.8964 39.6211 17.6698C39.36 17.5738 39.0858 17.5729 38.8044 17.6676C38.0955 17.9058 37.5869 18.3243 37.3332 18.8777C37.0881 19.4123 37.0992 20.0401 37.3653 20.6932C38.1344 22.5814 39.2157 24.2276 40.5794 25.5861C41.9141 26.9159 43.5546 28.0052 45.4553 28.8236C45.6266 28.8974 45.8063 28.9376 45.9375 28.9669C45.9823 28.977 46.0209 28.9855 46.049 28.9932C46.0645 28.9975 46.0804 28.9997 46.0964 28.9999L46.1114 28.9999C46.1115 28.9999 46.1114 28.9999 46.1115 28.9999C47.0055 28.9999 48.0789 28.1831 48.4086 27.2517C48.6974 26.4363 48.17 26.0332 47.7463 25.7094Z" fill="white"/>
<path d="M43.9572 20.1143C43.8042 20.1182 43.4857 20.1261 43.3739 20.4505C43.3216 20.6021 43.3279 20.7337 43.3925 20.8417C43.4874 21.0002 43.6692 21.0488 43.8346 21.0754C44.4342 21.1716 44.7422 21.5032 44.8038 22.1189C44.8324 22.406 45.0257 22.6064 45.2739 22.6064H45.274C45.2923 22.6064 45.3111 22.6053 45.3297 22.6031C45.6282 22.5676 45.773 22.3482 45.7599 21.9513C45.7647 21.537 45.5478 21.0666 45.1791 20.692C44.809 20.3162 44.363 20.1045 43.9572 20.1143Z" fill="white"/>
<path d="M46.265 5.03566C46.2794 3.34381 44.8384 1.79283 43.0529 1.57836C43.0173 1.57414 42.9787 1.56774 42.9377 1.56095C42.8493 1.5463 42.7579 1.53125 42.6657 1.53125C42.2997 1.53125 42.2019 1.78831 42.1761 1.94164C42.1511 2.0907 42.175 2.21588 42.247 2.31387C42.3682 2.47866 42.5814 2.50791 42.7527 2.53137C42.8029 2.53831 42.8503 2.54475 42.8899 2.55366C44.4942 2.91214 45.0344 3.47571 45.2984 5.06634C45.3048 5.1052 45.3077 5.1531 45.3108 5.20389C45.3223 5.39404 45.3463 5.78962 45.7716 5.78962H45.7717C45.8071 5.78962 45.8451 5.78657 45.8848 5.78052C46.2808 5.72034 46.2684 5.35874 46.2624 5.185C46.2607 5.13606 46.2591 5.08978 46.2633 5.059C46.2644 5.05124 46.2649 5.04344 46.265 5.03566Z" fill="#1066E8"/>
<path d="M42.5618 0.957324C42.6093 0.960746 42.6543 0.964027 42.6917 0.96977C45.3261 1.37491 46.5376 2.62304 46.8733 5.27801C46.879 5.32315 46.8799 5.37818 46.8808 5.43647C46.8842 5.64389 46.8911 6.07542 47.3545 6.08435L47.3689 6.08449C47.5142 6.08449 47.6299 6.04066 47.7125 5.95413C47.8568 5.80324 47.8467 5.57909 47.8386 5.39892C47.8366 5.35472 47.8347 5.3131 47.8352 5.27665C47.8687 2.56131 45.5183 0.0990465 42.8054 0.00749997C42.7941 0.00712497 42.7834 0.00773435 42.7725 0.00925778C42.7672 0.0100312 42.7573 0.0110156 42.7404 0.0110156C42.7134 0.0110156 42.6801 0.00867184 42.6448 0.00628123C42.6021 0.00335155 42.5537 0 42.5047 0C42.0727 0 41.9905 0.307077 41.98 0.490123C41.9558 0.913192 42.3651 0.942957 42.5618 0.957324Z" fill="#1066E8"/>
<path d="M46.7463 8.70936C46.6903 8.66658 46.6324 8.62231 46.5782 8.57862C46.2905 8.34715 45.9845 8.1338 45.6886 7.92746C45.6272 7.88469 45.5658 7.84187 45.5046 7.79893C45.1255 7.53266 44.7847 7.40326 44.4627 7.40326C44.029 7.40326 43.6509 7.64288 43.3389 8.11538C43.2006 8.32486 43.0329 8.4267 42.8261 8.4267C42.7039 8.4267 42.565 8.39183 42.4134 8.32299C41.1898 7.76813 40.316 6.9174 39.8164 5.79442C39.5749 5.25166 39.6532 4.89689 40.0783 4.60814C40.3196 4.44431 40.7689 4.13932 40.7371 3.55528C40.7011 2.89205 39.2377 0.896425 38.6211 0.669785C38.36 0.573785 38.0858 0.572895 37.8044 0.667558C37.0955 0.905846 36.5869 1.32432 36.3332 1.87766C36.0881 2.41233 36.0992 3.04013 36.3653 3.69319C37.1344 5.58135 38.2157 7.2276 39.5794 8.58607C40.9141 9.91591 42.5546 11.0052 44.4553 11.8236C44.6266 11.8974 44.8063 11.9376 44.9375 11.9669C44.9823 11.977 45.0209 11.9855 45.049 11.9932C45.0645 11.9975 45.0804 11.9997 45.0964 11.9999L45.1114 11.9999C45.1115 11.9999 45.1114 11.9999 45.1115 11.9999C46.0055 11.9999 47.0789 11.1831 47.4086 10.2517C47.6974 9.43629 47.17 9.03321 46.7463 8.70936Z" fill="#1066E8"/>
<path d="M42.9572 3.11434C42.8042 3.11821 42.4857 3.12611 42.3739 3.45053C42.3216 3.60212 42.3279 3.73374 42.3925 3.84174C42.4874 4.0002 42.6692 4.04876 42.8346 4.07541C43.4342 4.17165 43.7422 4.50324 43.8038 5.11889C43.8324 5.40595 44.0257 5.60641 44.2739 5.60641H44.274C44.2923 5.60641 44.3111 5.60533 44.3297 5.60306C44.6282 5.56755 44.773 5.34823 44.7599 4.95127C44.7647 4.53697 44.5478 4.06662 44.1791 3.69198C43.809 3.31618 43.363 3.10454 42.9572 3.11434Z" fill="#1066E8"/>
<path fill-rule="evenodd" clip-rule="evenodd" d="M28.2516 18.7439C27.1236 17.6199 25.6233 17.0007 24.0251 17C20.7317 17 18.0514 19.6674 18.0501 22.9459C18.0497 23.9939 18.3248 25.0169 18.8477 25.9187L18 29L21.1674 28.1731C22.0402 28.6469 23.0227 28.8966 24.0227 28.8969H24.0252C27.3181 28.8969 29.9987 26.2292 30 22.9506C30.0007 21.3617 29.3797 19.8678 28.2516 18.7439ZM24.0251 27.8927H24.023C23.132 27.8923 22.258 27.654 21.4954 27.2037L21.3142 27.0966L19.4346 27.5873L19.9363 25.7635L19.8181 25.5765C19.321 24.7896 19.0585 23.8801 19.0589 22.9462C19.06 20.2213 21.2878 18.0043 24.0271 18.0043C25.3535 18.0047 26.6005 18.5195 27.538 19.4537C28.4756 20.3879 28.9917 21.6296 28.9912 22.9503C28.9901 25.6755 26.7624 27.8927 24.0251 27.8927ZM26.7491 24.1911C26.5999 24.1167 25.8658 23.7573 25.729 23.7077C25.5922 23.6581 25.4926 23.6334 25.3931 23.7821C25.2936 23.9308 25.0075 24.2655 24.9204 24.3646C24.8332 24.4637 24.7462 24.4762 24.5969 24.4018C24.4476 24.3274 23.9666 24.1705 23.3963 23.6643C22.9525 23.2703 22.6529 22.7838 22.5658 22.6351C22.4788 22.4863 22.5651 22.4136 22.6313 22.3319C22.7929 22.1322 22.9547 21.9228 23.0045 21.8237C23.0543 21.7245 23.0294 21.6377 22.992 21.5634C22.9547 21.489 22.6562 20.7577 22.5318 20.4601C22.4105 20.1705 22.2875 20.2096 22.1958 20.2051C22.1088 20.2008 22.0093 20.1999 21.9097 20.1999C21.8102 20.1999 21.6484 20.237 21.5116 20.3858C21.3747 20.5346 20.9891 20.894 20.9891 21.6253C20.9891 22.3566 21.5241 23.0631 21.5987 23.1623C21.6733 23.2615 22.6515 24.7622 24.149 25.4057C24.5052 25.5589 24.7833 25.6503 25.0001 25.7188C25.3578 25.8318 25.6832 25.8159 25.9405 25.7776C26.2273 25.7349 26.8237 25.4182 26.9482 25.0711C27.0726 24.724 27.0726 24.4266 27.0352 24.3646C26.9979 24.3026 26.8984 24.2655 26.7491 24.1911Z" fill="white"/>
<path fill-rule="evenodd" clip-rule="evenodd" d="M28.2516 1.7439C27.1236 0.619922 25.6233 0.000659179 24.0251 0C20.7317 0 18.0514 2.66741 18.0501 5.94587C18.0497 6.9939 18.3248 8.01694 18.8477 8.9187L18 12L21.1674 11.1731C22.0402 11.6469 23.0227 11.8966 24.0227 11.8969H24.0252C27.3181 11.8969 29.9987 9.22925 30 5.95063C30.0007 4.36172 29.3797 2.8678 28.2516 1.7439ZM24.0251 10.8927H24.023C23.132 10.8923 22.258 10.654 21.4954 10.2037L21.3142 10.0966L19.4346 10.5873L19.9363 8.7635L19.8181 8.57651C19.321 7.7896 19.0585 6.88008 19.0589 5.94624C19.06 3.22126 21.2878 1.0043 24.0271 1.0043C25.3535 1.00474 26.6005 1.51948 27.538 2.45369C28.4756 3.38789 28.9917 4.62964 28.9912 5.95027C28.9901 8.67546 26.7624 10.8927 24.0251 10.8927ZM26.7491 7.19106C26.5999 7.11665 25.8658 6.75732 25.729 6.70767C25.5922 6.65808 25.4926 6.6334 25.3931 6.78208C25.2936 6.93076 25.0075 7.26548 24.9204 7.36458C24.8332 7.46375 24.7462 7.4762 24.5969 7.40178C24.4476 7.32744 23.9666 7.17048 23.3963 6.66431C22.9525 6.27034 22.6529 5.78379 22.5658 5.63511C22.4788 5.48628 22.5651 5.41362 22.6313 5.33188C22.7929 5.13215 22.9547 4.92275 23.0045 4.82366C23.0543 4.72449 23.0294 4.6377 22.992 4.56335C22.9547 4.48901 22.6562 3.75769 22.5318 3.46011C22.4105 3.17051 22.2875 3.20962 22.1958 3.20508C22.1088 3.20076 22.0093 3.19988 21.9097 3.19988C21.8102 3.19988 21.6484 3.23701 21.5116 3.38584C21.3747 3.53459 20.9891 3.89399 20.9891 4.62532C20.9891 5.35664 21.5241 6.06314 21.5987 6.1623C21.6733 6.26148 22.6515 7.76221 24.149 8.40571C24.5052 8.55894 24.7833 8.65027 25.0001 8.71875C25.3578 8.83184 25.6832 8.81587 25.9405 8.77764C26.2273 8.73494 26.8237 8.41816 26.9482 8.07114C27.0726 7.72405 27.0726 7.42661 27.0352 7.36458C26.9979 7.30261 26.8984 7.26548 26.7491 7.19106Z" fill="#1066E8"/>
<path d="M82.0042 0H81.9958C72.6224 0 65 7.6245 65 17C65 20.7188 66.1985 24.1655 68.2364 26.9641L66.1178 33.2796L72.6521 31.1908C75.3403 32.9715 78.5469 34 82.0042 34C91.3776 34 99 26.3734 99 17C99 7.62663 91.3776 0 82.0042 0Z" fill="#4CAF50"/>
<path d="M91.8962 24.0061C91.486 25.1643 89.8583 26.1248 88.5599 26.4053C87.6717 26.5944 86.5114 26.7453 82.6057 25.126C77.6098 23.0563 74.3925 17.9796 74.1418 17.6503C73.9017 17.3209 72.123 14.9621 72.123 12.5226C72.123 10.0831 73.3619 8.89527 73.8613 8.38527C74.2714 7.96664 74.9493 7.77539 75.5995 7.77539C75.8099 7.77539 75.999 7.78602 76.169 7.79452C76.6684 7.81577 76.9192 7.84552 77.2485 8.63389C77.6587 9.62201 78.6574 12.0615 78.7764 12.3123C78.8975 12.563 79.0187 12.903 78.8487 13.2324C78.6893 13.5724 78.549 13.7233 78.2983 14.0123C78.0475 14.3013 77.8095 14.5223 77.5588 14.8325C77.3293 15.1024 77.07 15.3914 77.359 15.8908C77.648 16.3795 78.6468 18.0094 80.1173 19.3184C82.0149 21.0078 83.5534 21.5475 84.1038 21.777C84.5139 21.947 85.0027 21.9066 85.3023 21.5879C85.6827 21.1778 86.1523 20.4978 86.6304 19.8284C86.9704 19.3481 87.3997 19.2886 87.8502 19.4586C88.3092 19.618 90.738 20.8186 91.2374 21.0673C91.7368 21.318 92.0662 21.437 92.1873 21.6474C92.3063 21.8578 92.3063 22.8459 91.8962 24.0061Z" fill="#FAFAFA"/>
<path d="M145.002 22.3931C144.844 22.2751 144.68 22.1528 144.526 22.0322C143.711 21.3933 142.844 20.8044 142.005 20.2348C141.832 20.1167 141.657 19.9985 141.484 19.88C140.41 19.1449 139.444 18.7877 138.532 18.7877C137.303 18.7877 136.232 19.4492 135.348 20.7535C134.956 21.3318 134.481 21.6129 133.895 21.6129C133.549 21.6129 133.155 21.5166 132.726 21.3266C129.259 19.7949 126.783 17.4466 125.368 14.3467C124.683 12.8484 124.905 11.8691 126.11 11.072C126.794 10.6198 128.067 9.77786 127.976 8.16567C127.874 6.33486 123.728 0.826077 121.981 0.200454C121.241 -0.0645466 120.464 -0.0670052 119.667 0.194307C117.659 0.852085 116.217 2.00726 115.499 3.53469C114.804 5.01063 114.836 6.74362 115.589 8.54634C117.769 13.7585 120.832 18.3028 124.696 22.0528C128.478 25.7237 133.126 28.7307 138.511 30.9899C138.997 31.1934 139.506 31.3044 139.878 31.3853C140.004 31.4131 140.114 31.4368 140.193 31.4581C140.237 31.4697 140.282 31.476 140.328 31.4764L140.37 31.4766C140.37 31.4766 140.37 31.4766 140.37 31.4766C142.903 31.4766 145.945 29.2216 146.879 26.6508C147.697 24.3998 146.203 23.2871 145.002 22.3931Z" fill="#7F40BD"/>
</svg>
